<svg xmlns="http://www.w3.org/2000/svg" width="188" height="52" viewBox="0 0 188 52" fill="none"><g clip-path="url(#clip0_413_519)"><path d="M25.9991 52C40.3586 52 51.9991 40.3594 51.9991 26C51.9991 11.6406 40.3586 0 25.9991 0C11.6397 0 -0.000854492 11.6406 -0.000854492 26C-0.000854492 40.3594 11.6397 52 25.9991 52Z" fill="#ACD7D2"></path><path fill-rule="evenodd" clip-rule="evenodd" d="M19.9517 43.6183C19.9676 42.0618 20.4364 38.3101 22.1028 35.9739C23.7692 33.6377 26.4616 31.9804 27.6029 31.488C29.037 30.6711 32.2114 28.5813 32.4496 24.0001C32.4733 23.5457 32.4952 23.1473 32.5175 22.7961C32.6741 20.3281 35.0918 19.1988 37.4888 18.5909C40.3528 17.8646 43.9765 16.5597 46.4179 14.5927C46.6698 14.3897 46.8086 14.1894 46.52 14.3021C46.4516 14.3449 46.3819 14.3887 46.3108 14.4333C44.0137 15.876 40.2789 18.2216 33.7158 17.8056C33.4737 17.8056 33.2374 17.5747 32.9474 17.2914C32.4873 16.8419 31.8922 16.2604 30.9248 16.2604C28.978 16.2604 27.6541 16.9807 27.1469 19.8206C27.2104 20.3447 26.9481 21.6803 25.3906 22.8293C22.9809 19.5301 15.5312 13.0066 5.90857 13.6329C7.82137 14.064 12.2052 16.2332 14.8804 22.3664C15.4522 23.7256 17.6972 26.4412 22.1028 26.512C19.5864 28.2728 15.6169 34.219 19.9517 43.6183ZM30.9448 19.1127C31.3207 19.1127 31.6255 18.8079 31.6255 18.432C31.6255 18.056 31.3207 17.7513 30.9448 17.7513C30.5689 17.7513 30.2641 18.056 30.2641 18.432C30.2641 18.8079 30.5689 19.1127 30.9448 19.1127Z" fill="#38648C"></path><path d="M167.538 22.2041C167.587 22.6429 167.636 23.0818 167.686 23.534C167.766 23.4751 167.847 23.4163 167.93 23.3556C169.327 22.3736 170.545 22.0178 172.266 22.2041C173.915 22.6136 174.878 23.4535 175.961 24.7161C176.107 24.8624 176.107 24.8624 176.256 25.0116C176.306 24.9383 176.357 24.8649 176.409 24.7894C177.291 23.5521 178.281 22.5573 179.802 22.2041C181.536 22.025 183.254 22.2391 184.683 23.2875C186.027 24.4262 186.387 25.6729 186.599 27.3758C186.639 28.0376 186.644 28.6975 186.645 29.3603C186.649 29.7343 186.652 30.1083 186.656 30.4824C186.661 31.0651 186.664 31.6477 186.667 32.2304C186.67 32.7976 186.676 33.3646 186.682 33.9318C186.682 34.1929 186.682 34.1929 186.682 34.4593C186.692 35.3191 186.719 35.9369 187.191 36.685C187.191 36.7825 187.191 36.8801 187.191 36.9805C187.386 37.0293 187.581 37.0781 187.782 37.1283C187.782 37.2746 187.782 37.4209 187.782 37.5716C186.221 37.5716 184.661 37.5716 183.053 37.5716C183.053 37.3766 183.053 37.1815 183.053 36.9805C183.199 36.9318 183.346 36.883 183.497 36.8328C183.894 36.2001 183.996 35.7091 183.999 34.9691C184.001 34.7777 184.003 34.5863 184.005 34.3891C184.005 34.182 184.004 33.9749 184.004 33.7678C184.004 33.5533 184.005 33.3387 184.006 33.1241C184.007 32.6753 184.007 32.2264 184.006 31.7775C184.004 31.2048 184.007 30.6323 184.011 30.0596C184.014 29.6166 184.014 29.1737 184.013 28.7308C184.013 28.5198 184.014 28.3087 184.016 28.0977C184.026 26.7309 183.983 25.7487 183.064 24.6803C182.217 23.9696 181.548 23.6067 180.404 23.6459C179.432 23.7594 178.771 24.1563 178.109 24.8679C177.455 25.706 177.127 26.5848 177.114 27.6438C177.111 27.9087 177.111 27.9087 177.107 28.1789C177.101 28.9874 177.094 29.7959 177.091 30.6043C177.089 31.0304 177.085 31.4565 177.079 31.8826C177.071 32.3985 177.068 32.9144 177.067 33.4304C177.065 33.7209 177.06 34.0112 177.055 34.3016C177.058 35.3669 177.128 36.1775 177.881 36.9805C177.979 37.0293 178.077 37.0781 178.177 37.1283C178.177 37.2746 178.177 37.4209 178.177 37.5716C176.617 37.5716 175.056 37.5716 173.449 37.5716C173.596 36.9805 173.596 36.9805 173.882 36.7681C174.27 36.4745 174.336 36.2596 174.483 35.7984C174.53 35.3584 174.53 35.3584 174.528 34.8834C174.531 34.7019 174.533 34.5203 174.535 34.3333C174.536 34.1361 174.537 33.939 174.538 33.7418C174.539 33.5377 174.541 33.3336 174.542 33.1295C174.544 32.7018 174.545 32.2742 174.546 31.8466C174.547 31.3022 174.552 30.7579 174.559 30.2136C174.563 29.7918 174.564 29.3701 174.564 28.9483C174.566 28.6512 174.57 28.3541 174.574 28.0571C174.568 26.7628 174.384 25.7108 173.487 24.7306C172.754 24.0421 171.956 23.6649 170.946 23.6171C170.03 23.6518 169.389 23.9202 168.723 24.5493C167.965 25.3764 167.651 26.0176 167.643 27.1564C167.641 27.3483 167.639 27.5401 167.637 27.7378C167.637 27.9462 167.636 28.1545 167.636 28.3629C167.635 28.578 167.634 28.7931 167.633 29.0082C167.631 29.4586 167.631 29.9089 167.631 30.3593C167.631 30.9346 167.627 31.5096 167.622 32.0848C167.619 32.529 167.618 32.9732 167.618 33.4174C167.618 33.6294 167.616 33.8413 167.614 34.0533C167.579 35.6268 167.579 35.6268 168.277 36.9805C168.374 37.0293 168.472 37.0781 168.572 37.1283C168.572 37.2746 168.572 37.4209 168.572 37.5716C167.061 37.5716 165.549 37.5716 163.992 37.5716C163.992 36.9805 163.992 36.9805 164.352 36.6111C164.477 36.4892 164.602 36.3673 164.731 36.2417C164.928 35.7175 164.899 35.1778 164.902 34.6233C164.903 34.4701 164.903 34.4701 164.904 34.3137C164.906 33.9764 164.907 33.6393 164.908 33.302C164.909 33.0668 164.91 32.8316 164.911 32.5964C164.912 32.1034 164.913 31.6104 164.914 31.1174C164.914 30.4874 164.918 29.8574 164.922 29.2274C164.925 28.7415 164.926 28.2556 164.926 27.7697C164.926 27.5375 164.927 27.3054 164.929 27.0732C164.932 26.7475 164.932 26.422 164.931 26.0963C164.931 25.9114 164.932 25.7264 164.932 25.5359C164.868 24.9173 164.721 24.5271 164.435 23.9773C164.129 23.8232 164.129 23.8232 163.844 23.8295C163.844 23.6344 163.844 23.4394 163.844 23.2384C164.348 23.0646 164.853 22.8928 165.359 22.7213C165.501 22.6719 165.644 22.6226 165.792 22.5718C165.93 22.5251 166.068 22.4784 166.211 22.4304C166.337 22.387 166.464 22.3437 166.595 22.299C166.947 22.2041 166.947 22.2041 167.538 22.2041Z" fill="#38648C"></path><path d="M61 14.077C62.7554 14.077 64.5108 14.077 66.3196 14.077C66.3196 14.2232 66.3196 14.3695 66.3196 14.5203C66.2038 14.5599 66.0881 14.5995 65.9685 14.6403C65.5392 14.7934 65.5392 14.7933 65.285 15.2591C65.1565 15.8482 65.1181 16.4135 65.1142 17.0152C65.1127 17.1855 65.1112 17.3558 65.1096 17.5313C65.1088 17.716 65.1081 17.9007 65.1069 18.0911C65.1058 18.2892 65.1042 18.4873 65.1027 18.6854C65.0988 19.2215 65.0954 19.7575 65.0927 20.2935C65.0892 20.8544 65.0854 21.4152 65.0815 21.9761C65.0738 23.0374 65.0673 24.0987 65.0612 25.1599C65.0538 26.3685 65.0454 27.577 65.0373 28.7856C65.0208 31.2709 65.0046 33.7563 64.9896 36.2417C66.1046 36.2355 67.2192 36.2248 68.3338 36.211C68.7127 36.2068 69.0915 36.2037 69.4708 36.2016C70.0165 36.1984 70.5623 36.1915 71.1081 36.1839C71.2765 36.1837 71.445 36.1835 71.6185 36.1834C72.7135 36.1634 73.6104 36.0493 74.4177 35.2333C74.8354 34.5062 75.0569 33.8198 75.1854 32.9908C75.3804 32.9908 75.5754 32.9908 75.7765 32.9908C75.7765 34.5025 75.7765 36.0141 75.7765 37.5715C70.9004 37.5715 66.0238 37.5715 61 37.5715C61 37.4252 61 37.279 61 37.1282C61.1096 37.1039 61.2196 37.0795 61.3323 37.0544C61.9242 36.7316 62.1269 36.2699 62.33 35.6506C62.4142 35.0057 62.4123 34.3672 62.4088 33.7175C62.41 33.5261 62.4112 33.3347 62.4127 33.1375C62.4158 32.6155 62.4154 32.0935 62.4142 31.5714C62.4135 31.1344 62.4146 30.6974 62.4154 30.2605C62.4181 29.2292 62.4177 28.198 62.415 27.1667C62.4127 26.105 62.415 25.0435 62.4196 23.9818C62.4235 23.068 62.4246 22.1541 62.4235 21.2403C62.4227 20.6955 62.4231 20.1507 62.4262 19.606C62.4292 18.9983 62.4265 18.3909 62.4231 17.7832C62.425 17.6042 62.4265 17.4251 62.4285 17.2407C62.4181 16.3099 62.3315 15.6534 61.8073 14.8731C61.5477 14.627 61.3488 14.5769 61 14.5203C61 14.374 61 14.2277 61 14.077Z" fill="#38648C"></path><path d="M102.965 23.0905C103.306 23.188 103.648 23.2855 104 23.386C104 24.2637 104 25.1414 104 26.0458C103.853 26.0458 103.707 26.0458 103.556 26.0458C103.477 25.9177 103.398 25.7897 103.316 25.6579C102.762 24.7675 101.706 24.1906 100.717 23.8991C99.5741 23.7052 98.1518 23.5841 97.0822 24.0787C96.448 24.5297 96.448 24.5297 96.0203 25.1592C95.908 25.868 95.8733 26.4132 96.2757 27.0264C97.2483 28.0392 98.7687 28.4061 100.065 28.8441C102.065 29.5216 103.878 30.148 105.172 31.9009C105.48 32.8781 105.446 33.902 105.172 34.8839C104.228 36.437 103.043 37.2619 101.306 37.7596C98.6233 38.2766 96.6672 37.5134 94.3564 36.2256C94.0757 36.0735 94.0757 36.0735 93.656 35.946C93.656 35.0195 93.656 34.093 93.656 33.1385C93.8022 33.1385 93.9483 33.1385 94.0991 33.1385C94.2676 33.3659 94.2676 33.3659 94.4314 33.6741C95.1945 34.9558 96.551 35.8437 97.9872 36.2231C98.1672 36.2291 98.3468 36.2352 98.5322 36.2415C98.6876 36.2522 98.843 36.2629 99.003 36.2739C100.347 36.3318 101.269 36.1374 102.333 35.303C102.839 34.7985 102.903 34.309 102.915 33.6326C102.725 32.9592 102.258 32.5234 101.699 32.1387C100.301 31.446 98.8518 30.9363 97.3687 30.4514C95.8099 29.9239 94.5164 29.2626 93.656 27.8189C93.3626 26.9395 93.3349 25.7571 93.6745 24.8821C94.3995 23.6735 95.2264 22.9586 96.6072 22.5638C98.808 22.0229 100.888 22.2609 102.965 23.0905Z" fill="#38648C"></path><path d="M141.088 16.2934C141.088 18.3902 141.088 20.4869 141.088 22.6473C142.404 22.6473 143.721 22.6473 145.077 22.6473C145.077 23.0374 145.077 23.4275 145.077 23.8294C143.761 23.8294 142.444 23.8294 141.088 23.8294C141.1 25.1525 141.114 26.4756 141.13 27.7987C141.137 28.4132 141.144 29.0277 141.15 29.6422C141.155 30.2362 141.162 30.8302 141.17 31.4242C141.173 31.6499 141.175 31.8755 141.177 32.1011C141.188 33.4767 141.241 34.7795 141.679 36.0939C142.412 36.1672 142.869 36.1819 143.507 35.7799C144.03 35.2078 144.34 34.6394 144.486 33.8774C144.681 33.8774 144.876 33.8774 145.077 33.8774C145.077 34.7551 145.077 35.6328 145.077 36.5371C144.736 36.7322 144.395 36.9272 144.043 37.1282C143.823 37.2542 143.823 37.2542 143.599 37.3827C142.714 37.7602 141.638 37.723 140.717 37.4693C139.829 37.0652 139.268 36.4052 138.908 35.5028C138.615 34.6834 138.557 33.8673 138.559 33.0021C138.559 32.904 138.559 32.8059 138.559 32.7047C138.559 32.3834 138.56 32.062 138.561 31.7406C138.562 31.5166 138.562 31.2926 138.562 31.0685C138.562 30.4812 138.564 29.8938 138.565 29.3064C138.567 28.7061 138.568 28.1059 138.569 27.5056C138.57 26.3294 138.573 25.1533 138.576 23.9772C137.942 23.9772 137.308 23.9772 136.655 23.9772C136.655 23.5383 136.655 23.0994 136.655 22.6473C137.289 22.6473 137.923 22.6473 138.576 22.6473C138.565 22.066 138.552 21.4851 138.537 20.9039C138.53 20.6092 138.525 20.3144 138.519 20.0195C138.514 19.8343 138.509 19.649 138.504 19.4582C138.5 19.2872 138.496 19.1162 138.492 18.94C138.463 18.5112 138.463 18.5112 138.222 18.2353C137.95 18.0416 137.721 17.9752 137.394 17.9188C137.394 17.7237 137.394 17.5287 137.394 17.3277C137.554 17.2779 137.714 17.2279 137.88 17.1765C138.093 17.1099 138.307 17.0434 138.52 16.9768C138.625 16.9441 138.731 16.9113 138.839 16.8775C138.995 16.829 138.995 16.829 139.154 16.7794C139.257 16.7474 139.359 16.7155 139.465 16.6826C139.728 16.5984 139.99 16.5081 140.251 16.4169C140.644 16.2934 140.644 16.2934 141.088 16.2934Z" fill="#38648C"></path><path d="M129.12 22.3519C129.168 22.937 129.217 23.5222 129.267 24.125C129.374 24.0153 129.48 23.9056 129.59 23.7926C130.521 22.8822 131.303 22.3371 132.62 22.2872C133.59 22.3081 134.43 22.5871 135.325 22.9429C135.218 23.4592 135.021 23.9063 134.799 24.3836C134.732 24.5292 134.665 24.6747 134.595 24.8246C134.544 24.9351 134.492 25.0456 134.439 25.1594C133.996 25.1594 133.996 25.1594 133.691 24.8731C133.596 24.7725 133.502 24.672 133.405 24.5683C132.844 24.2881 132.241 24.3304 131.631 24.4206C131.092 24.6557 130.625 24.9566 130.154 25.3072C129.926 25.4333 129.926 25.4333 129.695 25.562C129.348 25.8555 129.273 26.0176 129.186 26.47C129.157 27.0295 129.156 27.5854 129.165 28.1453C129.166 28.3534 129.166 28.5615 129.166 28.7697C129.166 29.2056 129.17 29.6413 129.176 30.0772C129.183 30.6332 129.185 31.189 129.185 31.745C129.185 32.1749 129.187 32.6048 129.191 33.0347C129.192 33.2395 129.193 33.4443 129.193 33.6491C129.197 34.7507 129.211 35.6896 129.71 36.685C130.016 36.9486 130.016 36.9486 130.301 37.1283C130.301 37.2746 130.301 37.4209 130.301 37.5716C128.741 37.5716 127.181 37.5716 125.573 37.5716C125.573 37.1283 125.573 37.1283 125.85 36.842C125.954 36.7415 126.057 36.6409 126.164 36.5373C126.522 36.0002 126.498 35.5073 126.5 34.8735C126.501 34.7665 126.502 34.6595 126.503 34.5493C126.505 34.1962 126.505 33.8432 126.504 33.4902C126.505 33.2443 126.505 32.9985 126.506 32.7527C126.507 32.2375 126.507 31.7224 126.506 31.2073C126.505 30.5478 126.508 29.8883 126.511 29.2288C126.513 28.7211 126.514 28.2134 126.513 27.7057C126.513 27.4626 126.514 27.2195 126.516 26.9763C126.517 26.6361 126.516 26.2959 126.515 25.9557C126.515 25.7622 126.515 25.5688 126.515 25.3695C126.456 24.8305 126.342 24.5532 126.016 24.125C125.711 23.9288 125.711 23.9288 125.425 23.8295C125.474 23.6345 125.523 23.4394 125.573 23.2385C126.081 23.0897 126.589 22.9423 127.097 22.7952C127.241 22.7529 127.385 22.7106 127.534 22.667C127.673 22.627 127.811 22.587 127.954 22.5458C128.082 22.5087 128.21 22.4715 128.341 22.4333C128.676 22.3519 128.676 22.3519 129.12 22.3519Z" fill="#38648C"></path><path fill-rule="evenodd" clip-rule="evenodd" d="M120.253 23.8295L119.96 23.5922C117.975 22.1257 115.159 21.931 112.83 22.6335C110.847 23.418 109.501 24.6898 108.612 26.6283C107.675 28.9793 107.78 31.4003 108.727 33.7297C109.65 35.534 110.981 36.6892 112.865 37.4238C116.359 38.538 119.205 37.5442 122.322 35.9462V33.1386H121.879C121.548 33.8919 121.159 34.5088 120.549 35.0595C118.93 36.1488 117.322 36.5669 115.377 36.3894C114.169 36.0552 112.943 35.4795 112.175 34.4616L111.978 34.173C111.441 33.4313 111.076 32.7282 110.844 31.836L110.77 31.5363C110.679 31.184 110.589 30.8317 110.5 30.4788C111.934 30.482 113.367 30.4845 114.8 30.4861L114.967 30.4862C115.641 30.4869 116.316 30.4876 116.99 30.489C117.706 30.4906 118.422 30.4921 119.138 30.4927C119.409 30.4928 119.681 30.493 119.952 30.4933C120.345 30.4944 120.737 30.4956 121.13 30.4957L121.488 30.4956L121.83 30.4972C121.903 30.4971 121.975 30.5012 122.047 30.5051C122.312 30.5199 122.562 30.5339 122.765 30.3311C122.774 30.1295 122.778 30.0169 122.779 29.9043C122.78 29.7618 122.776 29.6194 122.765 29.2967C122.552 27.38 122.036 25.3685 120.528 24.0436L120.253 23.8295ZM120.309 27.8098C119.8 26.1841 119 24.879 117.538 23.9865C115.625 23.0903 113.622 23.6744 112.126 25.0116C111.061 26.1243 110.5 27.4739 110.5 29.0012H120.401C120.401 28.2624 120.401 28.2624 120.309 27.8098Z" fill="#38648C"></path><path fill-rule="evenodd" clip-rule="evenodd" d="M159.317 26.4233C158.98 25.0356 158.475 23.9839 157.251 23.1738C154.106 21.5119 150.867 22.3389 147.886 23.8295V26.4893H148.477L148.655 26.267L148.81 25.9628C149.462 24.8387 150.471 24.0367 151.728 23.6817C153.076 23.5256 154.36 23.8016 155.456 24.6174C156.378 25.4844 156.749 26.5928 156.9 27.8191C154.619 28.0301 152.113 28.9823 150.092 30.0435C148.797 30.768 147.716 31.6695 147.295 33.1387C147.205 34.0711 147.148 34.9871 147.626 35.8215L147.849 36.1678C147.959 36.3406 148.014 36.4272 148.074 36.5101C148.134 36.5934 148.199 36.6731 148.33 36.8328C149.348 37.5288 150.416 37.8957 151.647 37.9221L151.977 37.9225C153.645 37.9262 154.933 37.4135 156.309 36.5003L156.9 36.0939V37.5716H160.446V37.1283L160.003 36.8328C159.731 36.3837 159.571 36.0317 159.504 35.5093L159.503 35.0463L159.498 34.5169C159.499 34.1314 159.498 33.746 159.495 33.3605C159.491 32.8438 159.488 32.327 159.487 31.8103V31.7647C159.485 31.0559 159.483 30.3473 159.477 29.6386C159.475 29.4411 159.474 29.2437 159.472 29.0463V28.9915C159.474 28.1252 159.476 27.278 159.317 26.4233ZM156.974 31.3783C156.957 30.6839 156.934 29.9905 156.901 29.2968C156.52 29.2968 156.384 29.2968 156.251 29.3134C156.177 29.3227 156.104 29.3371 155.99 29.3594C153.625 29.9754 151.217 30.6753 149.817 32.8431C149.577 33.5202 149.581 34.0853 149.808 34.764C150.281 35.4932 150.835 35.974 151.645 36.2931C152.851 36.5997 154.027 36.4736 155.099 35.8538L155.571 35.5029C155.954 35.2712 156.28 35.0328 156.615 34.7338C156.767 34.5136 156.871 34.3634 156.939 34.1983C157.085 33.8432 157.065 33.4197 157.001 32.0851C156.989 31.8496 156.98 31.6139 156.974 31.3783Z" fill="#38648C"></path><path fill-rule="evenodd" clip-rule="evenodd" d="M89.276 26.4233C88.9387 25.0356 88.4341 23.9839 87.2103 23.1738C84.0653 21.5119 80.8268 22.3389 77.8456 23.8295V26.4893H78.4368L78.6145 26.267L78.7691 25.9628C79.4218 24.8387 80.4303 24.0367 81.6876 23.6817C83.0349 23.5256 84.3191 23.8016 85.4149 24.6174C86.3368 25.4844 86.7079 26.5928 86.8591 27.8191C84.5783 28.0301 82.0722 28.9823 80.051 30.0435C78.756 30.768 77.6753 31.6695 77.2545 33.1387C77.1641 34.0711 77.1072 34.9871 77.5845 35.8215L77.8087 36.1678C77.918 36.3406 77.973 36.4272 78.0326 36.5101C78.093 36.5934 78.158 36.6731 78.2887 36.8328C79.3072 37.5288 80.3749 37.8957 81.6064 37.9221L81.9368 37.9225C83.6037 37.9262 84.8918 37.4135 86.268 36.5003L86.8591 36.0939V37.5716H90.4056V37.1283L89.9622 36.8328C89.6899 36.3837 89.5299 36.0317 89.4629 35.5093L89.4622 35.0463L89.4576 34.5169C89.4583 34.1314 89.4572 33.746 89.4541 33.3605C89.4495 32.8438 89.4472 32.327 89.446 31.8103L89.4456 31.7647C89.4441 31.0559 89.4422 30.3473 89.436 29.6386C89.4341 29.4411 89.4326 29.2437 89.4314 29.0463V28.9915C89.4333 28.1252 89.4356 27.278 89.276 26.4233ZM86.9322 31.3783C86.9164 30.6839 86.8922 29.9906 86.8591 29.2968C86.4787 29.2968 86.3433 29.2968 86.2099 29.3135C86.136 29.3227 86.0626 29.3371 85.9491 29.3594C83.5837 29.9754 81.1756 30.6754 79.7756 32.8431C79.536 33.5202 79.5403 34.0853 79.7664 34.764C80.2403 35.4932 80.7945 35.974 81.6037 36.2931C82.8103 36.5997 83.9856 36.4736 85.0583 35.8538L85.5295 35.5029C85.9126 35.2712 86.2395 35.0328 86.5737 34.7338C86.726 34.5137 86.8299 34.3634 86.8976 34.1983C87.0437 33.8432 87.0233 33.4197 86.9595 32.0851C86.9479 31.8496 86.9391 31.614 86.9322 31.3783Z" fill="#38648C"></path><path d="M80.6181 51.923H78.893V46.8321H80.6529C81.1584 46.8321 81.5926 46.934 81.9555 47.1379C82.3201 47.3401 82.6001 47.6309 82.7957 48.0104C82.9912 48.3899 83.089 48.844 83.089 49.3726C83.089 49.9029 82.9904 50.3586 82.7932 50.7398C82.5977 51.121 82.3151 51.4134 81.9456 51.6173C81.5777 51.8211 81.1352 51.923 80.6181 51.923ZM79.8152 51.1251H80.5734C80.928 51.1251 81.2238 51.0605 81.4608 50.9312C81.6978 50.8003 81.876 50.6056 81.9953 50.347C82.1146 50.0869 82.1743 49.762 82.1743 49.3726C82.1743 48.9832 82.1146 48.66 81.9953 48.4031C81.876 48.1446 81.6995 47.9516 81.4658 47.824C81.2338 47.6947 80.9454 47.6301 80.6007 47.6301H79.8152V51.1251ZM83.9653 51.923V46.8321H87.2763V47.6052H84.8875V48.9873H87.1048V49.7604H84.8875V51.15H87.2962V51.923H83.9653ZM88.2172 51.923V46.8321H90.1263C90.5174 46.8321 90.8455 46.905 91.1107 47.0509C91.3775 47.1967 91.5788 47.3972 91.7147 47.6524C91.8523 47.906 91.9211 48.1943 91.9211 48.5175C91.9211 48.844 91.8523 49.134 91.7147 49.3875C91.5772 49.6411 91.3742 49.8408 91.1057 49.9866C90.8372 50.1308 90.5066 50.2029 90.1139 50.2029H88.8486V49.4447H89.9896C90.2183 49.4447 90.4055 49.4049 90.5514 49.3254C90.6972 49.2458 90.8049 49.1365 90.8745 48.9973C90.9458 48.858 90.9814 48.6981 90.9814 48.5175C90.9814 48.3369 90.9458 48.1778 90.8745 48.0402C90.8049 47.9027 90.6964 47.7958 90.5489 47.7196C90.4031 47.6417 90.215 47.6027 89.9846 47.6027H89.1394V51.923H88.2172ZM93.6443 46.8321V51.923H92.7221V46.8321H93.6443ZM94.643 51.923V46.8321H95.5652V51.15H97.8074V51.923H94.643ZM99.453 51.923H98.4686L100.261 46.8321H101.399L103.194 51.923H102.21L100.85 47.8762H100.81L99.453 51.923ZM99.4853 49.9269H102.17V50.6677H99.4853V49.9269ZM107.983 48.5498H107.053C107.027 48.3973 106.978 48.2623 106.907 48.1446C106.835 48.0253 106.747 47.9242 106.641 47.8414C106.535 47.7585 106.414 47.6964 106.278 47.6549C106.144 47.6118 105.999 47.5903 105.843 47.5903C105.566 47.5903 105.321 47.6599 105.107 47.7991C104.893 47.9366 104.726 48.1388 104.605 48.4056C104.484 48.6708 104.423 48.9948 104.423 49.3776C104.423 49.767 104.484 50.0951 104.605 50.362C104.727 50.6271 104.895 50.8276 105.107 50.9635C105.321 51.0978 105.565 51.1649 105.84 51.1649C105.993 51.1649 106.135 51.145 106.268 51.1052C106.402 51.0638 106.522 51.0033 106.628 50.9237C106.736 50.8442 106.826 50.7464 106.899 50.6304C106.974 50.5144 107.025 50.3818 107.053 50.2327L107.983 50.2377C107.948 50.4796 107.873 50.7067 107.757 50.9188C107.642 51.1309 107.492 51.3182 107.307 51.4806C107.121 51.6413 106.904 51.7673 106.656 51.8584C106.407 51.9479 106.131 51.9926 105.828 51.9926C105.38 51.9926 104.981 51.8891 104.63 51.6819C104.278 51.4748 104.002 51.1756 103.799 50.7845C103.597 50.3934 103.496 49.9245 103.496 49.3776C103.496 48.829 103.598 48.3601 103.802 47.9706C104.006 47.5795 104.283 47.2804 104.635 47.0732C104.986 46.8661 105.384 46.7625 105.828 46.7625C106.111 46.7625 106.375 46.8023 106.618 46.8818C106.862 46.9614 107.079 47.0782 107.27 47.2323C107.46 47.3848 107.617 47.5721 107.739 47.7941C107.864 48.0145 107.945 48.2664 107.983 48.5498ZM109.75 46.8321V51.923H108.828V46.8321H109.75ZM115.297 49.3776C115.297 49.9261 115.195 50.3959 114.989 50.787C114.785 51.1765 114.507 51.4748 114.154 51.6819C113.803 51.8891 113.404 51.9926 112.958 51.9926C112.513 51.9926 112.113 51.8891 111.76 51.6819C111.409 51.4731 111.13 51.174 110.925 50.7845C110.721 50.3934 110.619 49.9245 110.619 49.3776C110.619 48.829 110.721 48.3601 110.925 47.9706C111.13 47.5795 111.409 47.2804 111.76 47.0732C112.113 46.8661 112.513 46.7625 112.958 46.7625C113.404 46.7625 113.803 46.8661 114.154 47.0732C114.507 47.2804 114.785 47.5795 114.989 47.9706C115.195 48.3601 115.297 48.829 115.297 49.3776ZM114.37 49.3776C114.37 48.9915 114.31 48.6658 114.189 48.4007C114.069 48.1339 113.904 47.9325 113.692 47.7966C113.48 47.6591 113.235 47.5903 112.958 47.5903C112.682 47.5903 112.437 47.6591 112.225 47.7966C112.013 47.9325 111.846 48.1339 111.725 48.4007C111.606 48.6658 111.546 48.9915 111.546 49.3776C111.546 49.7637 111.606 50.0902 111.725 50.357C111.846 50.6221 112.013 50.8235 112.225 50.961C112.437 51.0969 112.682 51.1649 112.958 51.1649C113.235 51.1649 113.48 51.0969 113.692 50.961C113.904 50.8235 114.069 50.6221 114.189 50.357C114.31 50.0902 114.37 49.7637 114.37 49.3776ZM112.613 46.33L113.17 45.194H114.05L113.286 46.33H112.613ZM120.353 46.8321V51.923H119.533L117.134 48.4553H117.092V51.923H116.169V46.8321H116.995L119.391 50.3023H119.436V46.8321H120.353ZM123.094 51.923V46.8321H124.016V51.15H126.259V51.923H123.094ZM127.904 51.923H126.92L128.712 46.8321H129.851L131.645 51.923H130.661L129.301 47.8762H129.261L127.904 51.923ZM127.937 49.9269H130.621V50.6677H127.937V49.9269ZM128.936 46.33L129.493 45.194H130.373L129.609 46.33H128.936ZM135.001 48.2316C134.977 48.0145 134.88 47.8455 134.707 47.7245C134.536 47.6036 134.314 47.5431 134.041 47.5431C133.849 47.5431 133.684 47.5721 133.546 47.6301C133.409 47.6881 133.304 47.7668 133.231 47.8662C133.158 47.9656 133.12 48.0792 133.119 48.2068C133.119 48.3128 133.143 48.4048 133.191 48.4827C133.241 48.5606 133.308 48.6269 133.392 48.6816C133.477 48.7346 133.57 48.7793 133.673 48.8158C133.776 48.8522 133.879 48.8829 133.984 48.9078L134.461 49.0271C134.653 49.0718 134.838 49.1323 135.015 49.2085C135.194 49.2848 135.354 49.3809 135.495 49.4969C135.638 49.6129 135.75 49.7529 135.833 49.917C135.916 50.0811 135.958 50.2733 135.958 50.4937C135.958 50.792 135.881 51.0547 135.729 51.2817C135.576 51.5071 135.356 51.6836 135.068 51.8112C134.781 51.9371 134.434 52.0001 134.026 52.0001C133.63 52.0001 133.286 51.9388 132.994 51.8161C132.704 51.6935 132.477 51.5145 132.313 51.2792C132.151 51.0439 132.063 50.7572 132.05 50.4191H132.957C132.97 50.5964 133.025 50.7439 133.121 50.8616C133.217 50.9793 133.342 51.0671 133.497 51.1251C133.652 51.1831 133.826 51.2121 134.019 51.2121C134.219 51.2121 134.395 51.1823 134.546 51.1226C134.698 51.0613 134.817 50.9768 134.904 50.8691C134.99 50.7597 135.034 50.6321 135.035 50.4862C135.034 50.3537 134.995 50.2443 134.918 50.1581C134.842 50.0703 134.735 49.9974 134.598 49.9394C134.462 49.8797 134.303 49.8267 134.121 49.7803L133.541 49.6311C133.122 49.5234 132.791 49.3602 132.547 49.1414C132.305 48.921 132.184 48.6285 132.184 48.2639C132.184 47.964 132.265 47.7013 132.428 47.4759C132.592 47.2506 132.815 47.0757 133.096 46.9514C133.378 46.8255 133.697 46.7625 134.053 46.7625C134.415 46.7625 134.731 46.8255 135.003 46.9514C135.276 47.0757 135.491 47.2489 135.647 47.471C135.803 47.6914 135.883 47.9449 135.888 48.2316H135.001ZM136.78 51.923V46.8321H140.091V47.6052H137.702V48.9873H139.919V49.7604H137.702V51.15H140.111V51.923H136.78ZM141.032 51.923V46.8321H142.941C143.332 46.8321 143.66 46.9001 143.925 47.036C144.192 47.1719 144.393 47.3624 144.529 47.6077C144.667 47.8513 144.736 48.1355 144.736 48.4603C144.736 48.7868 144.666 49.0702 144.527 49.3105C144.389 49.5491 144.186 49.7339 143.918 49.8648C143.649 49.9941 143.319 50.0587 142.928 50.0587H141.569V49.2931H142.804C143.033 49.2931 143.22 49.2616 143.366 49.1986C143.512 49.134 143.619 49.0403 143.689 48.9177C143.76 48.7934 143.796 48.641 143.796 48.4603C143.796 48.2797 143.76 48.1256 143.689 47.998C143.618 47.8687 143.509 47.7709 143.363 47.7046C143.218 47.6367 143.029 47.6027 142.799 47.6027H141.954V51.923H141.032ZM143.662 49.6162L144.922 51.923H143.893L142.655 49.6162H143.662ZM149.046 51.923H147.321V46.8321H149.081C149.586 46.8321 150.02 46.934 150.383 47.1379C150.748 47.3401 151.028 47.6309 151.223 48.0104C151.419 48.3899 151.517 48.844 151.517 49.3726C151.517 49.9029 151.418 50.3586 151.221 50.7398C151.025 51.121 150.743 51.4134 150.373 51.6173C150.005 51.8211 149.563 51.923 149.046 51.923ZM148.243 51.1251H149.001C149.356 51.1251 149.652 51.0605 149.889 50.9312C150.126 50.8003 150.304 50.6056 150.423 50.347C150.542 50.0869 150.602 49.762 150.602 49.3726C150.602 48.9832 150.542 48.66 150.423 48.4031C150.304 48.1446 150.127 47.9516 149.894 47.824C149.662 47.6947 149.373 47.6301 149.028 47.6301H148.243V51.1251ZM153.315 46.8321V51.923H152.393V46.8321H153.315ZM158.863 49.3776C158.863 49.9261 158.76 50.3959 158.555 50.787C158.351 51.1765 158.072 51.4748 157.719 51.6819C157.368 51.8891 156.97 51.9926 156.524 51.9926C156.078 51.9926 155.679 51.8891 155.326 51.6819C154.974 51.4731 154.696 51.174 154.49 50.7845C154.287 50.3934 154.185 49.9245 154.185 49.3776C154.185 48.829 154.287 48.3601 154.49 47.9706C154.696 47.5795 154.974 47.2804 155.326 47.0732C155.679 46.8661 156.078 46.7625 156.524 46.7625C156.97 46.7625 157.368 46.8661 157.719 47.0732C158.072 47.2804 158.351 47.5795 158.555 47.9706C158.76 48.3601 158.863 48.829 158.863 49.3776ZM157.936 49.3776C157.936 48.9915 157.875 48.6658 157.754 48.4007C157.635 48.1339 157.469 47.9325 157.257 47.7966C157.045 47.6591 156.801 47.5903 156.524 47.5903C156.247 47.5903 156.003 47.6591 155.79 47.7966C155.578 47.9325 155.412 48.1339 155.291 48.4007C155.171 48.6658 155.112 48.9915 155.112 49.3776C155.112 49.7637 155.171 50.0902 155.291 50.357C155.412 50.6221 155.578 50.8235 155.79 50.961C156.003 51.0969 156.247 51.1649 156.524 51.1649C156.801 51.1649 157.045 51.0969 157.257 50.961C157.469 50.8235 157.635 50.6221 157.754 50.357C157.875 50.0902 157.936 49.7637 157.936 49.3776ZM161.46 51.923H159.735V46.8321H161.495C162 46.8321 162.434 46.934 162.797 47.1379C163.162 47.3401 163.442 47.6309 163.637 48.0104C163.833 48.3899 163.931 48.844 163.931 49.3726C163.931 49.9029 163.832 50.3586 163.635 50.7398C163.439 51.121 163.157 51.4134 162.787 51.6173C162.419 51.8211 161.977 51.923 161.46 51.923ZM160.657 51.1251H161.415C161.77 51.1251 162.066 51.0605 162.303 50.9312C162.54 50.8003 162.718 50.6056 162.837 50.347C162.956 50.0869 163.016 49.762 163.016 49.3726C163.016 48.9832 162.956 48.66 162.837 48.4031C162.718 48.1446 162.541 47.9516 162.308 47.824C162.076 47.6947 161.787 47.6301 161.443 47.6301H160.657V51.1251ZM169.356 49.3776C169.356 49.9261 169.253 50.3959 169.048 50.787C168.844 51.1765 168.566 51.4748 168.213 51.6819C167.861 51.8891 167.463 51.9926 167.017 51.9926C166.571 51.9926 166.172 51.8891 165.819 51.6819C165.467 51.4731 165.189 51.174 164.984 50.7845C164.78 50.3934 164.678 49.9245 164.678 49.3776C164.678 48.829 164.78 48.3601 164.984 47.9706C165.189 47.5795 165.467 47.2804 165.819 47.0732C166.172 46.8661 166.571 46.7625 167.017 46.7625C167.463 46.7625 167.861 46.8661 168.213 47.0732C168.566 47.2804 168.844 47.5795 169.048 47.9706C169.253 48.3601 169.356 48.829 169.356 49.3776ZM168.429 49.3776C168.429 48.9915 168.368 48.6658 168.247 48.4007C168.128 48.1339 167.962 47.9325 167.75 47.7966C167.538 47.6591 167.294 47.5903 167.017 47.5903C166.74 47.5903 166.496 47.6591 166.284 47.7966C166.072 47.9325 165.905 48.1339 165.784 48.4007C165.665 48.6658 165.605 48.9915 165.605 49.3776C165.605 49.7637 165.665 50.0902 165.784 50.357C165.905 50.6221 166.072 50.8235 166.284 50.961C166.496 51.0969 166.74 51.1649 167.017 51.1649C167.294 51.1649 167.538 51.0969 167.75 50.961C167.962 50.8235 168.128 50.6221 168.247 50.357C168.368 50.0902 168.429 49.7637 168.429 49.3776Z" fill="#39638A"></path></g><defs><clipPath id="clip0_413_519"><rect width="188" height="52" fill="white"></rect></clipPath></defs></svg>